<?xml version="1.0" encoding="UTF-8"?>
<svg version="1.1" xmlns="http://www.w3.org/2000/svg" width="48" height="48">
<path d="M0 0 C0.33 2.31 0.66 4.62 1 7 C2.32 7.33 3.64 7.66 5 8 C3.34832443 11.5786304 1.21713508 14.74820188 -1 18 C0.65 18.33 2.3 18.66 4 19 C3.67 20.32 3.34 21.64 3 23 C4.65 23 6.3 23 8 23 C7.67 23.5775 7.34 24.155 7 24.75 C5.72924102 27.19883862 5.72924102 27.19883862 6 31 C6.495 31.99 6.495 31.99 7 33 C1.06 33.495 1.06 33.495 -5 34 C-5.33 34.99 -5.66 35.98 -6 37 C-6.721875 36.690625 -7.44375 36.38125 -8.1875 36.0625 C-9.115625 35.711875 -10.04375 35.36125 -11 35 C-11.78375 34.67 -12.5675 34.34 -13.375 34 C-16.64015096 34 -17.19621154 34.79320875 -19.5625 36.9375 C-20.12066406 37.50339844 -20.67882813 38.06929687 -21.25390625 38.65234375 C-23 40 -23 40 -27 40 C-26.65652573 36.79424013 -26.0292146 36.02483241 -23.5 33.875 C-22.2625 32.946875 -22.2625 32.946875 -21 32 C-20.67 31.34 -20.34 30.68 -20 30 C-22.31 29.67 -24.62 29.34 -27 29 C-26.7525 28.29875 -26.505 27.5975 -26.25 26.875 C-25.90061757 22.85710204 -27.67446468 21.17118453 -30 18 C-30 17.34 -30 16.68 -30 16 C-29.01 15.67 -28.02 15.34 -27 15 C-26.67 13.02 -26.34 11.04 -26 9 C-24.02 9.66 -22.04 10.32 -20 11 C-19.67 10.34 -19.34 9.68 -19 9 C-18.34 9 -17.68 9 -17 9 C-16.67 10.32 -16.34 11.64 -16 13 C-15.34 13 -14.68 13 -14 13 C-13.80083984 12.07767578 -13.80083984 12.07767578 -13.59765625 11.13671875 C-13.33275391 9.92435547 -13.33275391 9.92435547 -13.0625 8.6875 C-12.80146484 7.48673828 -12.80146484 7.48673828 -12.53515625 6.26171875 C-12 4 -12 4 -11 1 C-9.02 1.66 -7.04 2.32 -5 3 C-4.54625 2.505 -4.0925 2.01 -3.625 1.5 C-2 0 -2 0 0 0 Z " fill="#8AC249" transform="translate(35,4)"/>
<path d="M0 0 C1.39195915 4.17587745 -0.17676781 6.13474776 -2 10 C0.64 10 3.28 10 6 10 C3 12 3 12 -0.3125 11.625 C-3.94641845 11.59926733 -3.94641845 11.59926733 -5.61328125 13.6328125 C-6.62993741 15.05665653 -7.62327485 16.49741227 -8.59375 17.953125 C-10.39430228 20.57392887 -12.31662461 22.3052366 -15 24 C-16.32 24 -17.64 24 -19 24 C-18.71248893 20.78577367 -17.90082842 19.90655283 -15.49609375 17.640625 C-14.48675781 16.85171875 -13.47742188 16.0628125 -12.4375 15.25 C-11.42558594 14.45078125 -10.41367187 13.6515625 -9.37109375 12.828125 C-8.58863281 12.22484375 -7.80617188 11.6215625 -7 11 C-8.65 9.02 -10.3 7.04 -12 5 C-11.67 4.34 -11.34 3.68 -11 3 C-10.236875 3.680625 -9.47375 4.36125 -8.6875 5.0625 C-7.3571875 6.0215625 -7.3571875 6.0215625 -6 7 C-2.7014861 6.27731765 -2.7014861 6.27731765 -1.3125 2.9375 C-0.879375 1.968125 -0.44625 0.99875 0 0 Z " fill="#66A037" transform="translate(27,20)"/>
<path d="M0 0 C1.39195915 4.17587745 -0.17676781 6.13474776 -2 10 C0.64 10 3.28 10 6 10 C2.32312983 12.45124678 0.33872783 12.15495457 -4 12 C-4.99 12 -5.98 12 -7 12 C-7.268125 11.401875 -7.53625 10.80375 -7.8125 10.1875 C-8.98493467 8.02775192 -10.19369282 6.64209744 -12 5 C-11.67 4.34 -11.34 3.68 -11 3 C-10.236875 3.680625 -9.47375 4.36125 -8.6875 5.0625 C-7.3571875 6.0215625 -7.3571875 6.0215625 -6 7 C-2.7014861 6.27731765 -2.7014861 6.27731765 -1.3125 2.9375 C-0.879375 1.968125 -0.44625 0.99875 0 0 Z " fill="#6EA53B" transform="translate(27,20)"/>
</svg>
